<mxfile host="Electron" agent="Mozilla/5.0 (Windows NT 10.0; Win64; x64) AppleWebKit/537.36 (KHTML, like Gecko) draw.io/26.2.2 Chrome/134.0.6998.178 Electron/35.1.2 Safari/537.36" version="26.2.2">
  <diagram id="payment_sequence_diagram" name="订单支付流程时序图">
    <mxGraphModel dx="1030" dy="611" grid="1" gridSize="10" guides="1" tooltips="1" connect="1" arrows="1" fold="1" page="1" pageScale="1" pageWidth="1169" pageHeight="827" math="0" shadow="0">
      <root>
        <mxCell id="0" />
        <mxCell id="1" parent="0" />
        <mxCell id="lifeline-user" value="用户 (Guest)" style="shape=umlLifeline;perimeter=lifelinePerimeter;container=1;collapsible=0;recursiveResize=0;rounded=0;shadow=0;strokeWidth=1;size=40;fontSize=12;" parent="1" vertex="1">
          <mxGeometry x="70" y="120" width="100" height="600" as="geometry" />
        </mxCell>
        <mxCell id="activation-user" value="" style="html=1;points=[];perimeter=orthogonalPerimeter;outlineConnect=0;targetShapes=umlLifeline;portConstraint=eastwest;newEdgeStyle={&quot;edgeStyle&quot;:&quot;elbowEdgeStyle&quot;,&quot;elbow&quot;:&quot;vertical&quot;,&quot;curved&quot;:0,&quot;rounded&quot;:0};fontSize=11;" parent="lifeline-user" vertex="1">
          <mxGeometry x="45" y="70" width="10" height="480" as="geometry" />
        </mxCell>
        <mxCell id="lifeline-frontend" value="前端应用" style="shape=umlLifeline;perimeter=lifelinePerimeter;container=1;collapsible=0;recursiveResize=0;rounded=0;shadow=0;strokeWidth=1;size=40;fontSize=12;" parent="1" vertex="1">
          <mxGeometry x="180" y="120" width="100" height="600" as="geometry" />
        </mxCell>
        <mxCell id="activation-frontend" value="" style="html=1;points=[];perimeter=orthogonalPerimeter;outlineConnect=0;targetShapes=umlLifeline;portConstraint=eastwest;newEdgeStyle={&quot;edgeStyle&quot;:&quot;elbowEdgeStyle&quot;,&quot;elbow&quot;:&quot;vertical&quot;,&quot;curved&quot;:0,&quot;rounded&quot;:0};fontSize=11;" parent="lifeline-frontend" vertex="1">
          <mxGeometry x="45" y="80" width="10" height="470" as="geometry" />
        </mxCell>
        <mxCell id="lifeline-controller" value="OrderController" style="shape=umlLifeline;perimeter=lifelinePerimeter;container=1;collapsible=0;recursiveResize=0;rounded=0;shadow=0;strokeWidth=1;size=40;fontSize=12;" parent="1" vertex="1">
          <mxGeometry x="290" y="120" width="120" height="600" as="geometry" />
        </mxCell>
        <mxCell id="activation-controller" value="" style="html=1;points=[];perimeter=orthogonalPerimeter;outlineConnect=0;targetShapes=umlLifeline;portConstraint=eastwest;newEdgeStyle={&quot;edgeStyle&quot;:&quot;elbowEdgeStyle&quot;,&quot;elbow&quot;:&quot;vertical&quot;,&quot;curved&quot;:0,&quot;rounded&quot;:0};fontSize=11;" parent="lifeline-controller" vertex="1">
          <mxGeometry x="55" y="120" width="10" height="400" as="geometry" />
        </mxCell>
        <mxCell id="lifeline-orderservice" value="OrderService" style="shape=umlLifeline;perimeter=lifelinePerimeter;container=1;collapsible=0;recursiveResize=0;rounded=0;shadow=0;strokeWidth=1;size=40;fontSize=12;" parent="1" vertex="1">
          <mxGeometry x="420" y="120" width="120" height="600" as="geometry" />
        </mxCell>
        <mxCell id="activation-orderservice" value="" style="html=1;points=[];perimeter=orthogonalPerimeter;outlineConnect=0;targetShapes=umlLifeline;portConstraint=eastwest;newEdgeStyle={&quot;edgeStyle&quot;:&quot;elbowEdgeStyle&quot;,&quot;elbow&quot;:&quot;vertical&quot;,&quot;curved&quot;:0,&quot;rounded&quot;:0};fontSize=11;" parent="lifeline-orderservice" vertex="1">
          <mxGeometry x="55" y="200" width="10" height="250" as="geometry" />
        </mxCell>
        <mxCell id="lifeline-paymentservice" value="PaymentService" style="shape=umlLifeline;perimeter=lifelinePerimeter;container=1;collapsible=0;recursiveResize=0;rounded=0;shadow=0;strokeWidth=1;size=40;fontSize=12;" parent="1" vertex="1">
          <mxGeometry x="550" y="120" width="120" height="600" as="geometry" />
        </mxCell>
        <mxCell id="activation-payment" value="" style="html=1;points=[];perimeter=orthogonalPerimeter;outlineConnect=0;targetShapes=umlLifeline;portConstraint=eastwest;newEdgeStyle={&quot;edgeStyle&quot;:&quot;elbowEdgeStyle&quot;,&quot;elbow&quot;:&quot;vertical&quot;,&quot;curved&quot;:0,&quot;rounded&quot;:0};fontSize=11;" parent="lifeline-paymentservice" vertex="1">
          <mxGeometry x="55" y="150" width="10" height="80" as="geometry" />
        </mxCell>
        <mxCell id="lifeline-repository" value="OrderRepository" style="shape=umlLifeline;perimeter=lifelinePerimeter;container=1;collapsible=0;recursiveResize=0;rounded=0;shadow=0;strokeWidth=1;size=40;fontSize=12;" parent="1" vertex="1">
          <mxGeometry x="680" y="120" width="120" height="600" as="geometry" />
        </mxCell>
        <mxCell id="activation-repo" value="" style="html=1;points=[];perimeter=orthogonalPerimeter;outlineConnect=0;targetShapes=umlLifeline;portConstraint=eastwest;newEdgeStyle={&quot;edgeStyle&quot;:&quot;elbowEdgeStyle&quot;,&quot;elbow&quot;:&quot;vertical&quot;,&quot;curved&quot;:0,&quot;rounded&quot;:0};fontSize=11;" parent="lifeline-repository" vertex="1">
          <mxGeometry x="55" y="260" width="10" height="40" as="geometry" />
        </mxCell>
        <mxCell id="lifeline-payment" value="第三方支付平台" style="shape=umlLifeline;perimeter=lifelinePerimeter;container=1;collapsible=0;recursiveResize=0;rounded=0;shadow=0;strokeWidth=1;size=40;fontSize=12;" parent="1" vertex="1">
          <mxGeometry x="810" y="120" width="120" height="600" as="geometry" />
        </mxCell>
        <mxCell id="activation-payment-gateway" value="" style="html=1;points=[];perimeter=orthogonalPerimeter;outlineConnect=0;targetShapes=umlLifeline;portConstraint=eastwest;newEdgeStyle={&quot;edgeStyle&quot;:&quot;elbowEdgeStyle&quot;,&quot;elbow&quot;:&quot;vertical&quot;,&quot;curved&quot;:0,&quot;rounded&quot;:0};fontSize=11;" parent="lifeline-payment" vertex="1">
          <mxGeometry x="55" y="220" width="10" height="80" as="geometry" />
        </mxCell>
        <mxCell id="lifeline-notify" value="NotificationService" style="shape=umlLifeline;perimeter=lifelinePerimeter;container=1;collapsible=0;recursiveResize=0;rounded=0;shadow=0;strokeWidth=1;size=40;fontSize=12;" parent="1" vertex="1">
          <mxGeometry x="940" y="120" width="130" height="600" as="geometry" />
        </mxCell>
        <mxCell id="activation-notification" value="" style="html=1;points=[];perimeter=orthogonalPerimeter;outlineConnect=0;targetShapes=umlLifeline;portConstraint=eastwest;newEdgeStyle={&quot;edgeStyle&quot;:&quot;elbowEdgeStyle&quot;,&quot;elbow&quot;:&quot;vertical&quot;,&quot;curved&quot;:0,&quot;rounded&quot;:0};fontSize=11;" parent="lifeline-notify" vertex="1">
          <mxGeometry x="60" y="340" width="10" height="40" as="geometry" />
        </mxCell>
        <mxCell id="note-precondition" value="前提条件: 订单已创建 (初始状态: PENDING)" style="shape=note;size=15;whiteSpace=wrap;html=1;verticalAlign=top;align=left;spacingLeft=5;fillColor=#f5f5f5;strokeColor=#666666;fontSize=12;" parent="1" vertex="1">
          <mxGeometry x="210" y="70" width="250" height="40" as="geometry" />
        </mxCell>
        <mxCell id="msg-qr-req" value="1. 请求支付二维码" style="html=1;verticalAlign=bottom;endArrow=block;edgeStyle=elbowEdgeStyle;elbow=vertical;curved=0;rounded=0;fontSize=11;" parent="1" edge="1" target="activation-frontend">
          <mxGeometry relative="1" as="geometry">
            <Array as="points">
              <mxPoint x="170" y="210" />
            </Array>
            <mxPoint x="125" y="210" as="sourcePoint" />
            <mxPoint x="255" y="210" as="targetPoint" />
          </mxGeometry>
        </mxCell>
        <mxCell id="msg-api-req" value="2. POST /api/orders/{orderId}/payment/qrcode" style="html=1;verticalAlign=bottom;endArrow=block;edgeStyle=elbowEdgeStyle;elbow=vertical;curved=0;rounded=0;fontSize=11;" parent="1" edge="1" target="activation-controller" source="lifeline-frontend">
          <mxGeometry relative="1" as="geometry">
            <Array as="points">
              <mxPoint x="320" y="240" />
            </Array>
            <mxPoint x="265" y="240" as="sourcePoint" />
            <mxPoint x="405" y="240" as="targetPoint" />
          </mxGeometry>
        </mxCell>
        <mxCell id="msg-update-order" value="4. 更新订单状态为PAYMENT_PENDING" style="html=1;verticalAlign=bottom;endArrow=block;edgeStyle=elbowEdgeStyle;elbow=vertical;curved=0;rounded=0;fontSize=11;entryX=0.487;entryY=0.332;entryDx=0;entryDy=0;entryPerimeter=0;exitX=0.487;exitY=0.333;exitDx=0;exitDy=0;exitPerimeter=0;" parent="1" edge="1" target="lifeline-repository" source="lifeline-orderservice">
          <mxGeometry relative="1" as="geometry">
            <Array as="points">
              <mxPoint x="700" y="320" />
            </Array>
            <mxPoint x="565" y="320" as="sourcePoint" />
            <mxPoint x="875" y="320" as="targetPoint" />
          </mxGeometry>
        </mxCell>
        <mxCell id="msg-display-qr" value="5. 显示支付二维码" style="html=1;verticalAlign=bottom;endArrow=open;dashed=1;endSize=8;edgeStyle=elbowEdgeStyle;elbow=vertical;curved=0;rounded=0;fontSize=11;" parent="1" edge="1">
          <mxGeometry relative="1" as="geometry">
            <Array as="points">
              <mxPoint x="200" y="350" />
            </Array>
            <mxPoint x="255" y="350" as="sourcePoint" />
            <mxPoint x="125" y="350" as="targetPoint" />
          </mxGeometry>
        </mxCell>
        <mxCell id="msg-user-scan-pay" value="6. 扫描二维码支付" style="html=1;verticalAlign=bottom;endArrow=block;edgeStyle=elbowEdgeStyle;elbow=vertical;curved=0;rounded=0;fontSize=11;" parent="1" edge="1" target="activation-payment-gateway">
          <mxGeometry relative="1" as="geometry">
            <Array as="points">
              <mxPoint x="510" y="380" />
            </Array>
            <mxPoint x="125" y="380" as="sourcePoint" />
            <mxPoint x="1025" y="380" as="targetPoint" />
          </mxGeometry>
        </mxCell>
        <mxCell id="msg-payment-callback" value="7. 支付结果回调" style="html=1;verticalAlign=bottom;endArrow=block;edgeStyle=elbowEdgeStyle;elbow=vertical;curved=0;rounded=0;fontSize=11;" parent="1" edge="1" target="lifeline-controller" source="activation-payment-gateway">
          <mxGeometry relative="1" as="geometry">
            <Array as="points">
              <mxPoint x="750" y="400" />
            </Array>
            <mxPoint x="1025" y="400" as="sourcePoint" />
            <mxPoint x="405" y="400" as="targetPoint" />
          </mxGeometry>
        </mxCell>
        <mxCell id="msg-process-payment" value="8. 处理支付结果，更新订单状态为PAID" style="html=1;verticalAlign=bottom;endArrow=block;edgeStyle=elbowEdgeStyle;elbow=vertical;curved=0;rounded=0;fontSize=11;" parent="1" edge="1" target="activation-orderservice" source="lifeline-controller">
          <mxGeometry x="0.2829" y="-20" relative="1" as="geometry">
            <Array as="points">
              <mxPoint x="480" y="430" />
            </Array>
            <mxPoint x="415" y="430" as="sourcePoint" />
            <mxPoint x="560" y="430" as="targetPoint" />
            <mxPoint as="offset" />
          </mxGeometry>
        </mxCell>
        <mxCell id="msg-notify-host" value="9. 创建通知（通知房东和用户）" style="html=1;verticalAlign=bottom;endArrow=block;edgeStyle=elbowEdgeStyle;elbow=vertical;curved=0;rounded=0;fontSize=11;" parent="1" edge="1" target="lifeline-notify" source="lifeline-orderservice">
          <mxGeometry relative="1" as="geometry">
            <Array as="points">
              <mxPoint x="850" y="450" />
            </Array>
            <mxPoint x="565" y="450" as="sourcePoint" />
            <mxPoint x="1160" y="450" as="targetPoint" />
          </mxGeometry>
        </mxCell>
        <mxCell id="msg-send-notification-user" value="10. 发送支付成功通知" style="html=1;verticalAlign=bottom;endArrow=open;dashed=1;endSize=8;edgeStyle=elbowEdgeStyle;elbow=vertical;curved=0;rounded=0;fontSize=11;" parent="1" edge="1" source="activation-notification">
          <mxGeometry relative="1" as="geometry">
            <Array as="points">
              <mxPoint x="600" y="480" />
            </Array>
            <mxPoint x="1120" y="480" as="sourcePoint" />
            <mxPoint x="125" y="480" as="targetPoint" />
          </mxGeometry>
        </mxCell>
        <mxCell id="msg-show-success" value="11. 显示支付成功页面" style="html=1;verticalAlign=bottom;endArrow=open;dashed=1;endSize=8;edgeStyle=elbowEdgeStyle;elbow=vertical;curved=0;rounded=0;fontSize=11;" parent="1" edge="1">
          <mxGeometry x="0.0526" y="20" relative="1" as="geometry">
            <Array as="points">
              <mxPoint x="200" y="510" />
            </Array>
            <mxPoint x="220" y="510" as="sourcePoint" />
            <mxPoint x="125" y="510" as="targetPoint" />
            <mxPoint as="offset" />
          </mxGeometry>
        </mxCell>
        <mxCell id="note-states" value="订单状态流转：PENDING → PAYMENT_PENDING → PAID → CONFIRMED" style="shape=note;size=15;whiteSpace=wrap;html=1;verticalAlign=top;align=left;spacingLeft=5;fillColor=#f5f5f5;strokeColor=#666666;fontSize=12;" parent="1" vertex="1">
          <mxGeometry x="555" y="70" width="370" height="40" as="geometry" />
        </mxCell>
        <mxCell id="note-alternative" value="备注：&#xa;1. 用户也可以通过PUT /api/orders/{id}/pay接口主动完成支付&#xa;2. 支付失败时会将订单状态更新为PAYMENT_FAILED" style="shape=note;size=15;whiteSpace=wrap;html=1;verticalAlign=top;align=left;spacingLeft=5;fillColor=#fff2cc;strokeColor=#d6b656;fontSize=11;" parent="1" vertex="1">
          <mxGeometry x="70" y="550" width="360" height="50" as="geometry" />
        </mxCell>
        <mxCell id="msg-gen-qr-req" value="3. 生成支付二维码" style="html=1;verticalAlign=bottom;endArrow=block;edgeStyle=elbowEdgeStyle;elbow=vertical;curved=0;rounded=0;fontSize=11;entryX=0.5;entryY=0.283;entryDx=0;entryDy=0;entryPerimeter=0;" parent="1" edge="1" target="lifeline-orderservice" source="activation-controller">
          <mxGeometry relative="1" as="geometry">
            <Array as="points">
              <mxPoint x="465" y="290" />
            </Array>
            <mxPoint x="400" y="290" as="sourcePoint" />
            <mxPoint x="465" y="290" as="targetPoint" />
          </mxGeometry>
        </mxCell>
      </root>
    </mxGraphModel>
  </diagram>
</mxfile>
